<?xml version="1.0" encoding="UTF-8" standalone="no"?>
<!-- Created with Inkscape (http://www.inkscape.org/) -->

<svg
   width="41mm"
   height="36mm"
   viewBox="0 0 41 36"
   version="1.1"
   id="svg1"
   inkscape:version="1.3.2 (091e20e, 2023-11-25, custom)"
   sodipodi:docname="i1.svg"
   xmlns:inkscape="http://www.inkscape.org/namespaces/inkscape"
   xmlns:sodipodi="http://sodipodi.sourceforge.net/DTD/sodipodi-0.dtd"
   xmlns="http://www.w3.org/2000/svg"
   xmlns:svg="http://www.w3.org/2000/svg">
  <sodipodi:namedview
     id="namedview1"
     pagecolor="#ffffff"
     bordercolor="#000000"
     borderopacity="0.25"
     inkscape:showpageshadow="2"
     inkscape:pageopacity="0.0"
     inkscape:pagecheckerboard="0"
     inkscape:deskcolor="#d1d1d1"
     inkscape:document-units="mm"
     inkscape:zoom="3.6346801"
     inkscape:cx="71.945808"
     inkscape:cy="71.533117"
     inkscape:window-width="1366"
     inkscape:window-height="706"
     inkscape:window-x="-8"
     inkscape:window-y="-8"
     inkscape:window-maximized="1"
     inkscape:current-layer="layer1" />
  <defs
     id="defs1" />
  <g
     inkscape:label="Слой 1"
     inkscape:groupmode="layer"
     id="layer1">
    <path
       id="path27"
       style="fill:none;stroke:#864646;stroke-width:0.94;stroke-linecap:round;stroke-linejoin:round;stroke-miterlimit:27.4;stroke-dasharray:none;stroke-opacity:1"
       d="m 13.959043,8.2595433 h 13.081912 v 0 M 9.8519185,3.7023503 H 31.14808 v 0 M 16.175957,32.756323 h 8.648084 v 0 M 20.489136,1.6119463 9.8067305,1.6205463 c -0.960461,0.412627 -0.590983,2.049625 0.04519,2.081804 2.6135445,-0.01435 4.0952285,4.501481 4.1071225,4.557193 C -1.8056535,13.793216 9.6581005,30.379338 16.175959,32.756324 l -0.0031,1.61411 4.316327,0.01762 c 2.91614,-0.0035 2.877551,-0.0069 4.316326,-0.01039 l 0.01853,-1.62134 C 31.3419,30.379337 42.805653,13.793216 27.040957,8.2595433 c 0.01189,-0.05571 1.493578,-4.571543 4.107123,-4.557193 0.636171,-0.03218 1.005197,-1.669177 0.04474,-2.081804 l -10.681954,-0.0086 z"
       inkscape:label="i1" />
  </g>
</svg>
