<?xml version="1.0" encoding="UTF-8" standalone="no"?>
<!-- Created with Inkscape (http://www.inkscape.org/) -->

<svg
   width="41mm"
   height="36mm"
   viewBox="0 0 41 36"
   version="1.1"
   id="svg1"
   inkscape:version="1.3.2 (091e20e, 2023-11-25, custom)"
   sodipodi:docname="i2.svg"
   xmlns:inkscape="http://www.inkscape.org/namespaces/inkscape"
   xmlns:sodipodi="http://sodipodi.sourceforge.net/DTD/sodipodi-0.dtd"
   xmlns="http://www.w3.org/2000/svg"
   xmlns:svg="http://www.w3.org/2000/svg">
  <sodipodi:namedview
     id="namedview1"
     pagecolor="#ffffff"
     bordercolor="#000000"
     borderopacity="0.25"
     inkscape:showpageshadow="2"
     inkscape:pageopacity="0.0"
     inkscape:pagecheckerboard="0"
     inkscape:deskcolor="#d1d1d1"
     inkscape:document-units="mm"
     inkscape:zoom="3.6346801"
     inkscape:cx="71.945808"
     inkscape:cy="71.533117"
     inkscape:window-width="1366"
     inkscape:window-height="706"
     inkscape:window-x="-8"
     inkscape:window-y="-8"
     inkscape:window-maximized="1"
     inkscape:current-layer="layer1" />
  <defs
     id="defs1" />
  <g
     inkscape:label="Слой 1"
     inkscape:groupmode="layer"
     id="layer1">
    <path
       id="rect11-5-6"
       style="fill:none;stroke:#864646;stroke-width:1.05531;stroke-linecap:round;stroke-miterlimit:27.4;stroke-opacity:1"
       d="m 18.261096,1.8245246 c 2.511168,0 4.532796,1.9585937 4.532796,4.3914648 0,2.4328723 -2.021628,4.3914656 -4.532796,4.3914656 -2.51117,0 -4.532798,-1.9585933 -4.532798,-4.3914656 0,-2.4328711 2.021628,-4.3914648 4.532798,-4.3914648 z m 9.61933,5.6587009 c 2.090455,0 3.773385,1.6304564 3.773385,3.6557315 0,2.025276 -1.68293,3.655732 -3.773385,3.655732 -2.090455,0 -3.773385,-1.630456 -3.773385,-3.655732 0,-2.0252751 1.68293,-3.6557315 3.773385,-3.6557315 z M 20.308027,18.828908 c 2.031291,0 3.666594,1.584312 3.666594,3.552269 0,1.967956 -1.635303,3.552269 -3.666594,3.552269 -2.031293,0 -3.666593,-1.584313 -3.666593,-3.552269 0,-1.967957 1.6353,-3.552269 3.666593,-3.552269 z M 32.307859,16.86069 c -0.918867,-0.238502 -1.771897,-0.657755 -2.92412,-0.255508 -0.838596,0.288425 -1.592711,0.712956 -3.09805,-0.07277 -1.300946,-0.754871 -3.714029,-1.963464 -4.878973,-0.09097 l -0.588972,1.056803 v 0 m 9.363701,3.517451 c 0,0 2.220833,2.560283 1.576858,3.139163 -0.736673,0.662207 -2.476589,1.509936 -2.476589,1.509936 l -2.476593,1.509938 c -2.365723,1.641223 -1.498559,5.178388 2.48587,3.238177 l 5.435514,-3.383714 c 1.100751,-0.74065 1.718303,-1.752066 0.871909,-3.583827 L 34.374025,20.48007 c -1.827567,-0.477287 -3.034383,-2.227253 -2.50441,-2.981824 0.205752,-0.292952 0.276349,-0.479875 0.704947,-0.947651 0.441283,-0.481625 1.192207,-0.261899 1.706704,0.127344 0.917011,0.574416 1.237337,1.197593 1.576858,1.8192 0.446839,0.818087 0.109285,1.162058 -0.07422,1.32802 -0.622974,0.563416 -1.246694,0.58177 -1.409884,0.654911 m -7.490661,13.695405 0.07872,-2.91822 m -3.032392,-0.696949 v 3.199937 M 16.62533,30.588341 v 3.158042 m -2.06936,-6.383922 c 0,0 1.238435,-0.499519 1.940696,-0.472038 0.588602,0.02303 1.807726,0.533449 1.807726,0.533449 1.512972,0.381201 2.594192,0.433036 3.987785,-0.01286 2.132858,-0.881705 2.75645,-0.391665 3.502422,-0.01286 m -12.199459,6.277472 0.03418,-2.615476 m 9.22069,-20.162951 c -1.928268,1.038871 -3.468147,2.564408 -7.586013,0.859632 -1.445428,-0.566975 -2.967523,-0.73181 -4.07959,0.396753 -0.08264,0.08385 -5.1693951,5.315389 -5.1338779,9.445187 0.031744,3.691228 4.6342719,8.194978 5.2350249,8.772397 2.119615,2.037289 4.906464,-0.248609 3.270415,-3.008712 -0.763379,-1.548602 -3.383881,-3.729634 -3.706757,-5.532336 -0.322877,-1.802704 1.341949,-3.460865 2.391848,-5.642879 v 0"
       inkscape:label="i2" />
  </g>
</svg>
