<?xml version="1.0" encoding="UTF-8" standalone="no"?>
<!-- Created with Inkscape (http://www.inkscape.org/) -->

<svg
   width="41mm"
   height="36mm"
   viewBox="0 0 41 36"
   version="1.1"
   id="svg1"
   inkscape:version="1.3.2 (091e20e, 2023-11-25, custom)"
   sodipodi:docname="i3.svg"
   xmlns:inkscape="http://www.inkscape.org/namespaces/inkscape"
   xmlns:sodipodi="http://sodipodi.sourceforge.net/DTD/sodipodi-0.dtd"
   xmlns="http://www.w3.org/2000/svg"
   xmlns:svg="http://www.w3.org/2000/svg">
  <sodipodi:namedview
     id="namedview1"
     pagecolor="#ffffff"
     bordercolor="#000000"
     borderopacity="0.25"
     inkscape:showpageshadow="2"
     inkscape:pageopacity="0.0"
     inkscape:pagecheckerboard="0"
     inkscape:deskcolor="#d1d1d1"
     inkscape:document-units="mm"
     inkscape:zoom="3.6346801"
     inkscape:cx="71.945808"
     inkscape:cy="71.533117"
     inkscape:window-width="1366"
     inkscape:window-height="706"
     inkscape:window-x="-8"
     inkscape:window-y="-8"
     inkscape:window-maximized="1"
     inkscape:current-layer="layer1" />
  <defs
     id="defs1" />
  <g
     inkscape:label="Слой 1"
     inkscape:groupmode="layer"
     id="layer1">
    <path
       id="path17-7"
       style="fill:none;stroke:#864646;stroke-width:0.967999;stroke-linecap:butt;stroke-linejoin:round;stroke-miterlimit:27.4;stroke-dasharray:none;stroke-opacity:1"
       d="m 17.934388,6.0983095 c -0.1831,-0.981839 -0.53744,-1.832532 -1.02914,-2.578021 -0.52833,-0.530301 -1.35234,-1.137155 -2.82971,-1.894272 -1.57214,-0.554197 -3.27237,-0.485238 -4.5602901,-0.02339 l -1.19269,0.350792 c -1.17323,0.39513 -2.27016,0.44804 -2.78294,0.04677 l -0.85661,-0.7412 M 16.694978,17.993244 c 1.58177,0.167961 1.73847,-0.675218 1.39127,-2.125105 -0.23378,-0.825186 -1.04209,-1.334375 -1.56687,-1.999508 l -4.12388,-3.9148595 c -3.0269601,-1.821232 -0.47329,-6.645985 2.58204,-3.919719 h 0.0331 m -11.5448201,3.026751 2.11666,3.4395825 c 0.61693,1.547703 1.38154,1.618689 2.11667,1.984375 2.2016,0.431174 5.6356501,4.559721 8.4666701,6.879166 1.59093,1.218331 2.37141,-0.0139 2.11666,-0.835091 -0.2607,-0.99163 -0.84295,-1.807874 -1.5875,-2.535592 l -3.37344,-3.310046 c -0.9069,-0.771962 -1.83166,-1.557727 -2.97656,-2.513541 L 8.4928979,10.912886 M 24.230318,6.0983095 c 0.1831,-0.981839 0.53744,-1.832532 1.02914,-2.578021 0.52833,-0.530301 1.35234,-1.137155 2.82971,-1.894272 1.57214,-0.554197 3.27237,-0.485238 4.56029,-0.02339 l 1.19269,0.350792 c 1.17323,0.39513 2.27016,0.44804 2.78294,0.04677 l 0.85661,-0.7412 M 25.469728,17.993244 c -1.58177,0.167961 -1.73847,-0.675218 -1.39127,-2.125105 0.23378,-0.825186 1.04209,-1.334375 1.56687,-1.999508 l 4.12388,-3.9148595 c 3.02696,-1.821232 0.47329,-6.645985 -2.58204,-3.919719 h -0.0331 m 11.54482,3.026751 -2.11666,3.4395825 c -0.61693,1.547703 -1.38154,1.618689 -2.11667,1.984375 -2.2016,0.431174 -5.63565,4.559721 -8.46667,6.879166 -1.59093,1.218331 -2.37141,-0.0139 -2.11666,-0.835091 0.2607,-0.99163 0.84295,-1.807874 1.5875,-2.535592 l 3.37344,-3.310046 c 0.9069,-0.771962 1.83166,-1.557727 2.97656,-2.513541 l 1.85208,-1.256771 m -8.25896,14.867288 c 0.15923,-0.263786 0.3289,-0.521228 0.50557,-0.774407 0.17668,-0.253179 0.36037,-0.502095 0.54764,-0.748829 0.18728,-0.246734 0.37814,-0.491286 0.56917,-0.735737 0.19102,-0.244452 0.38222,-0.488802 0.57015,-0.735133 0.18794,-0.246331 0.37262,-0.494643 0.55062,-0.747015 0.17801,-0.252373 0.34933,-0.508807 0.51055,-0.771384 0.16122,-0.262577 0.31234,-0.531296 0.44994,-0.808239 0.1376,-0.276943 0.26167,-0.562109 0.3688,-0.857581 0.10713,-0.295471 0.19731,-0.601247 0.26713,-0.919409 0.0698,-0.318162 0.14406,-0.541223 0.14492,-0.993725 m -1.82719,-6.520383 c -0.2978,-0.541712 -0.6365,-1.108297 -1.01953,-1.7018345 l 0.46853,-2.576051 c 0.0559,-0.579375 -0.40098,-0.992074 -1.05085,-0.80008 l -5.59535,0.01986 m -4.37694,19.6517475 c -0.15923,-0.263786 -0.3289,-0.521228 -0.50557,-0.774407 -0.17668,-0.253179 -0.36037,-0.502095 -0.54764,-0.748829 -0.18728,-0.246734 -0.37814,-0.491286 -0.56917,-0.735737 -0.19102,-0.244452 -0.38222,-0.488802 -0.57015,-0.735133 -0.18794,-0.246331 -0.37262,-0.494643 -0.55062,-0.747015 -0.17801,-0.252373 -0.34933,-0.508807 -0.51055,-0.771384 -0.16122,-0.262577 -0.31234,-0.531296 -0.44994,-0.808239 -0.1376,-0.276943 -0.26167,-0.562109 -0.3688,-0.857581 -0.10713,-0.295471 -0.19731,-0.601247 -0.26713,-0.919409 -0.0698,-0.318162 -0.14406,-0.541223 -0.14492,-0.993725 m 1.82719,-6.520383 c 0.2978,-0.541712 0.6365,-1.108297 1.01953,-1.7018345 l -0.46853,-2.576051 c -0.0559,-0.579375 0.40098,-0.992074 1.05085,-0.80008 l 5.59535,0.01986 m -4.5399,19.6699475 8.91684,0.0182 0.52773,2.420282 h -10.06329 z m 3.49762,4.672941 h 1.96875 v 2.805143 h -1.96875 z m -7.29682,-2.194946 h 16.48953 c 0.3878,0 0.7,0.2676 0.7,0.6 v 0.956152 c 0,0.3324 -0.3122,0.6 -0.7,0.6 h -16.48953 c -0.3878,0 -0.7,-0.2676 -0.7,-0.6 v -0.956152 c 0,-0.3324 0.3122,-0.6 0.7,-0.6 z M 7.8708279,33.350831 H 33.710498 v 1.418491 H 7.8708279 Z"
       inkscape:label="i3" />
  </g>
</svg>
