<?xml version="1.0" encoding="UTF-8" standalone="no"?>
<!-- Created with Inkscape (http://www.inkscape.org/) -->

<svg
   width="41mm"
   height="36mm"
   viewBox="0 0 41 36"
   version="1.1"
   id="svg1"
   inkscape:version="1.3.2 (091e20e, 2023-11-25, custom)"
   sodipodi:docname="i4.svg"
   xmlns:inkscape="http://www.inkscape.org/namespaces/inkscape"
   xmlns:sodipodi="http://sodipodi.sourceforge.net/DTD/sodipodi-0.dtd"
   xmlns="http://www.w3.org/2000/svg"
   xmlns:svg="http://www.w3.org/2000/svg">
  <sodipodi:namedview
     id="namedview1"
     pagecolor="#ffffff"
     bordercolor="#000000"
     borderopacity="0.25"
     inkscape:showpageshadow="2"
     inkscape:pageopacity="0.0"
     inkscape:pagecheckerboard="0"
     inkscape:deskcolor="#d1d1d1"
     inkscape:document-units="mm"
     inkscape:zoom="3.6346801"
     inkscape:cx="71.945808"
     inkscape:cy="71.533117"
     inkscape:window-width="1366"
     inkscape:window-height="706"
     inkscape:window-x="-8"
     inkscape:window-y="-8"
     inkscape:window-maximized="1"
     inkscape:current-layer="layer1" />
  <defs
     id="defs1" />
  <g
     inkscape:label="Слой 1"
     inkscape:groupmode="layer"
     id="layer1">
    <path
       id="path24"
       style="fill:none;stroke:#864646;stroke-width:0.841044;stroke-linecap:butt;stroke-linejoin:round;stroke-miterlimit:27.4;stroke-dasharray:none;stroke-opacity:1"
       d="M 14.943741,2.4324395 C 9.8843913,1.8197374 9.7418156,7.072531 15.276188,7.6857523 m 1.612093,2.8467507 c -0.724432,-0.03257 -1.330802,-1.9679433 -1.715164,-3.1811435 -0.31267,-0.986923 -0.313606,-2.1664631 -0.39164,-3.3158749 0.03447,-1.0995578 0.221901,-2.1539233 0.525529,-3.04473123 v 0 c -0.432868,-0.36671944 11.303243,2.87146343 14.07629,3.83968873 -0.0851,0.250054 -0.155469,0.5149278 -0.29052,0.7503757 -0.157979,0.2754188 -0.369302,0.5586647 -0.512971,0.791395 -0.378403,0.6129668 -0.796497,1.0365634 -0.892054,1.1358745 M 12.681588,32.153723 h 15.761896 v 2.954723 H 12.681588 Z m 10e-6,0 C 11.247744,31.694145 11.483069,31.711042 9.6585315,30.78521 3.6286895,27.725466 0.76198753,21.969184 0.95914702,16.324418 L 40.104141,16.44429 c 0.142378,5.645804 -3.100717,11.642856 -9.129269,14.729441 -1.045543,0.535305 -1.027577,0.479395 -2.531388,0.979992 M 34.166949,5.6900225 7.0603953,13.286843 c 0.2440412,1.051546 0.6962434,2.041889 1.3411238,2.937104 l 21.9568279,0.06728 C 33.779229,13.236103 35.220252,9.2250089 34.166949,5.6899817 Z M 8.4015191,16.223947 30.358347,16.291226"
       inkscape:label="i4" />
  </g>
</svg>
